<svg width="49" height="50" viewBox="0 0 49 50" fill="none" xmlns="http://www.w3.org/2000/svg">
<path d="M43.5556 0.868061H5.44444C2.45 0.868061 0 3.30796 0 6.29006V44.244C0 47.2261 2.45 49.666 5.44444 49.666H43.5556C46.55 49.666 49 47.2261 49 44.244V6.29006C49 3.30796 46.55 0.868061 43.5556 0.868061ZM12.74 33.3458H8.16667V17.1341H12.8217C16.3061 17.1341 17.4767 19.9264 17.4767 21.7699V28.71C17.4767 30.5535 16.3333 33.3458 12.74 33.3458ZM25.5344 23.8031V26.7039H22.3222V30.4722H27.5761V33.3729H21.4511C20.3622 33.4 19.4367 32.5325 19.4094 31.4481V19.1673C19.3822 18.0829 20.2533 17.1612 21.3422 17.1341H27.5489V20.0348H22.3222V23.8031H25.5344ZM37.7844 31.3126C36.4778 34.3218 34.1639 33.7254 33.1294 31.3126L29.3183 17.1341H32.5306L35.4433 28.2763L38.3561 17.1341H41.5683L37.7844 31.3126Z" fill="#003300"/>
<path d="M12.985 20.1704H11.27V30.3908H12.985C13.3662 30.3908 13.7473 30.2553 14.1284 29.9571C14.5095 29.686 14.7 29.2522 14.7 28.6829V21.8512C14.7 21.2819 14.5095 20.8481 14.1284 20.577C13.7473 20.3059 13.3662 20.1704 12.985 20.1704Z" fill="#003300"/>
</svg>
